<mxfile host="app.diagrams.net" agent="Mozilla/5.0 (Windows NT 10.0; Win64; x64) AppleWebKit/537.36 (KHTML, like Gecko) Chrome/128.0.0.0 Safari/537.36" version="24.7.14" pages="2">
  <diagram name="D.S Consulta Cuenta" id="qqLxlSB8OQz-wJSuUPR-">
    <mxGraphModel dx="733" dy="360" grid="1" gridSize="10" guides="1" tooltips="1" connect="1" arrows="1" fold="1" page="1" pageScale="1" pageWidth="827" pageHeight="1169" math="0" shadow="0">
      <root>
        <mxCell id="0" />
        <mxCell id="1" parent="0" />
        <mxCell id="Yz1CMEa_mm-QIBamGwZ4-1" value="Consulta cuenta originante: Flujo principal" style="shape=umlFrame;whiteSpace=wrap;html=1;pointerEvents=0;width=260;height=30;" vertex="1" parent="1">
          <mxGeometry x="20" y="10" width="910" height="980" as="geometry" />
        </mxCell>
        <mxCell id="Yz1CMEa_mm-QIBamGwZ4-2" value="Usuario" style="shape=umlLifeline;perimeter=lifelinePerimeter;whiteSpace=wrap;html=1;container=1;dropTarget=0;collapsible=0;recursiveResize=0;outlineConnect=0;portConstraint=eastwest;newEdgeStyle={&quot;curved&quot;:0,&quot;rounded&quot;:0};participant=umlActor;" vertex="1" parent="1">
          <mxGeometry x="60" y="70" width="20" height="860" as="geometry" />
        </mxCell>
        <mxCell id="Yz1CMEa_mm-QIBamGwZ4-3" value="API GATEWAY" style="shape=umlLifeline;perimeter=lifelinePerimeter;whiteSpace=wrap;html=1;container=1;dropTarget=0;collapsible=0;recursiveResize=0;outlineConnect=0;portConstraint=eastwest;newEdgeStyle={&quot;edgeStyle&quot;:&quot;elbowEdgeStyle&quot;,&quot;elbow&quot;:&quot;vertical&quot;,&quot;curved&quot;:0,&quot;rounded&quot;:0};" vertex="1" parent="1">
          <mxGeometry x="280" y="70" width="100" height="870" as="geometry" />
        </mxCell>
        <mxCell id="Yz1CMEa_mm-QIBamGwZ4-4" value="API TRANSFERENCIA" style="shape=umlLifeline;perimeter=lifelinePerimeter;whiteSpace=wrap;html=1;container=1;dropTarget=0;collapsible=0;recursiveResize=0;outlineConnect=0;portConstraint=eastwest;newEdgeStyle={&quot;edgeStyle&quot;:&quot;elbowEdgeStyle&quot;,&quot;elbow&quot;:&quot;vertical&quot;,&quot;curved&quot;:0,&quot;rounded&quot;:0};" vertex="1" parent="1">
          <mxGeometry x="420" y="70" width="110" height="870" as="geometry" />
        </mxCell>
        <mxCell id="Yz1CMEa_mm-QIBamGwZ4-5" value="CCE" style="shape=umlLifeline;perimeter=lifelinePerimeter;whiteSpace=wrap;html=1;container=1;dropTarget=0;collapsible=0;recursiveResize=0;outlineConnect=0;portConstraint=eastwest;newEdgeStyle={&quot;edgeStyle&quot;:&quot;elbowEdgeStyle&quot;,&quot;elbow&quot;:&quot;vertical&quot;,&quot;curved&quot;:0,&quot;rounded&quot;:0};" vertex="1" parent="1">
          <mxGeometry x="610" y="70" width="100" height="870" as="geometry" />
        </mxCell>
        <mxCell id="Yz1CMEa_mm-QIBamGwZ4-6" value="HSM" style="shape=umlLifeline;perimeter=lifelinePerimeter;whiteSpace=wrap;html=1;container=1;dropTarget=0;collapsible=0;recursiveResize=0;outlineConnect=0;portConstraint=eastwest;newEdgeStyle={&quot;edgeStyle&quot;:&quot;elbowEdgeStyle&quot;,&quot;elbow&quot;:&quot;vertical&quot;,&quot;curved&quot;:0,&quot;rounded&quot;:0};" vertex="1" parent="1">
          <mxGeometry x="740" y="70" width="100" height="870" as="geometry" />
        </mxCell>
        <mxCell id="Yz1CMEa_mm-QIBamGwZ4-7" value="" style="html=1;verticalAlign=bottom;startArrow=oval;startFill=1;endArrow=block;startSize=8;curved=0;rounded=0;" edge="1" parent="1" target="Yz1CMEa_mm-QIBamGwZ4-9">
          <mxGeometry width="60" relative="1" as="geometry">
            <mxPoint x="69.92857142857144" y="130" as="sourcePoint" />
            <mxPoint x="199.5" y="130" as="targetPoint" />
          </mxGeometry>
        </mxCell>
        <mxCell id="Yz1CMEa_mm-QIBamGwZ4-8" value="&lt;span style=&quot;font-size: 8px;&quot;&gt;Selecciona ventana 470&lt;/span&gt;" style="edgeLabel;html=1;align=center;verticalAlign=middle;resizable=0;points=[];" vertex="1" connectable="0" parent="Yz1CMEa_mm-QIBamGwZ4-7">
          <mxGeometry x="-0.1804" relative="1" as="geometry">
            <mxPoint x="11" y="-10" as="offset" />
          </mxGeometry>
        </mxCell>
        <mxCell id="Yz1CMEa_mm-QIBamGwZ4-9" value="TAKANA INTERFAZ" style="shape=umlLifeline;perimeter=lifelinePerimeter;whiteSpace=wrap;html=1;container=1;dropTarget=0;collapsible=0;recursiveResize=0;outlineConnect=0;portConstraint=eastwest;newEdgeStyle={&quot;edgeStyle&quot;:&quot;elbowEdgeStyle&quot;,&quot;elbow&quot;:&quot;vertical&quot;,&quot;curved&quot;:0,&quot;rounded&quot;:0};" vertex="1" parent="1">
          <mxGeometry x="150" y="70" width="100" height="870" as="geometry" />
        </mxCell>
        <mxCell id="Yz1CMEa_mm-QIBamGwZ4-10" value="&lt;font style=&quot;font-size: 8px;&quot;&gt;retorna interfaz de transferencia&lt;/font&gt;" style="html=1;verticalAlign=bottom;endArrow=open;dashed=1;endSize=8;curved=0;rounded=0;" edge="1" parent="1">
          <mxGeometry x="-0.0041" relative="1" as="geometry">
            <mxPoint x="199.5" y="150" as="sourcePoint" />
            <mxPoint x="69.92857142857144" y="150" as="targetPoint" />
            <mxPoint as="offset" />
          </mxGeometry>
        </mxCell>
        <mxCell id="Yz1CMEa_mm-QIBamGwZ4-13" value="&lt;span style=&quot;font-size: 8px;&quot;&gt;Presiona botÃ³n &quot;Nuevo&quot;&lt;/span&gt;" style="html=1;verticalAlign=bottom;endArrow=block;curved=0;rounded=0;" edge="1" parent="1">
          <mxGeometry width="80" relative="1" as="geometry">
            <mxPoint x="70" y="170" as="sourcePoint" />
            <mxPoint x="199.5" y="170" as="targetPoint" />
          </mxGeometry>
        </mxCell>
        <mxCell id="Yz1CMEa_mm-QIBamGwZ4-14" value="&lt;font style=&quot;font-size: 8px;&quot;&gt;Habilita campos de interfaz&lt;/font&gt;" style="html=1;verticalAlign=bottom;endArrow=open;dashed=1;endSize=8;curved=0;rounded=0;" edge="1" parent="1">
          <mxGeometry x="-0.0041" relative="1" as="geometry">
            <mxPoint x="199.57" y="190" as="sourcePoint" />
            <mxPoint x="69.99857142857144" y="190" as="targetPoint" />
            <mxPoint as="offset" />
          </mxGeometry>
        </mxCell>
        <mxCell id="7qD96wGgjuaXcZ9THzNu-1" value="&lt;span style=&quot;font-size: 8px;&quot;&gt;Selecciona cuenta origen&lt;/span&gt;" style="html=1;verticalAlign=bottom;endArrow=block;curved=0;rounded=0;" edge="1" parent="1">
          <mxGeometry width="80" relative="1" as="geometry">
            <mxPoint x="70" y="210" as="sourcePoint" />
            <mxPoint x="199.5" y="210" as="targetPoint" />
          </mxGeometry>
        </mxCell>
        <mxCell id="7qD96wGgjuaXcZ9THzNu-5" value="&lt;span style=&quot;font-size: 8px;&quot;&gt;ObtenerClienteOriginante()&lt;/span&gt;" style="html=1;verticalAlign=bottom;endArrow=block;curved=0;rounded=0;" edge="1" parent="1">
          <mxGeometry width="80" relative="1" as="geometry">
            <mxPoint x="200" y="220" as="sourcePoint" />
            <mxPoint x="329.5" y="220" as="targetPoint" />
          </mxGeometry>
        </mxCell>
        <mxCell id="7qD96wGgjuaXcZ9THzNu-6" value="&lt;span style=&quot;font-size: 8px;&quot;&gt;ObtenerClienteOriginante()&lt;/span&gt;" style="html=1;verticalAlign=bottom;endArrow=block;curved=0;rounded=0;" edge="1" parent="1">
          <mxGeometry width="80" relative="1" as="geometry">
            <mxPoint x="329.81034482758605" y="230" as="sourcePoint" />
            <mxPoint x="474.5" y="230" as="targetPoint" />
          </mxGeometry>
        </mxCell>
        <mxCell id="7qD96wGgjuaXcZ9THzNu-7" value="&lt;span style=&quot;font-size: 8px;&quot;&gt;ObtenerDatosCuentaOrigenTIN()&lt;/span&gt;" style="html=1;align=left;spacingLeft=2;endArrow=block;rounded=0;edgeStyle=orthogonalEdgeStyle;curved=0;rounded=0;" edge="1" parent="1">
          <mxGeometry x="0.0103" relative="1" as="geometry">
            <mxPoint x="474" y="240.03999999999996" as="sourcePoint" />
            <Array as="points">
              <mxPoint x="494" y="240.03999999999996" />
              <mxPoint x="494" y="260.03999999999996" />
            </Array>
            <mxPoint x="474" y="260.03999999999996" as="targetPoint" />
            <mxPoint as="offset" />
          </mxGeometry>
        </mxCell>
        <mxCell id="7qD96wGgjuaXcZ9THzNu-8" value="&lt;font style=&quot;font-size: 8px;&quot;&gt;Retorna datos cuenta originante&lt;/font&gt;" style="html=1;verticalAlign=bottom;endArrow=open;dashed=1;endSize=8;curved=0;rounded=0;" edge="1" parent="1">
          <mxGeometry x="-0.0041" relative="1" as="geometry">
            <mxPoint x="475" y="310" as="sourcePoint" />
            <mxPoint x="329.92857142857144" y="310" as="targetPoint" />
            <mxPoint as="offset" />
          </mxGeometry>
        </mxCell>
        <mxCell id="7qD96wGgjuaXcZ9THzNu-9" value="&lt;span style=&quot;font-size: 8px;&quot;&gt;ValidarCuentaOriginantePermitidaSaliente()&lt;/span&gt;" style="html=1;align=left;spacingLeft=2;endArrow=block;rounded=0;edgeStyle=orthogonalEdgeStyle;curved=0;rounded=0;" edge="1" parent="1">
          <mxGeometry x="0.0103" relative="1" as="geometry">
            <mxPoint x="476" y="268.03999999999996" as="sourcePoint" />
            <Array as="points">
              <mxPoint x="496" y="268.03999999999996" />
              <mxPoint x="496" y="288.03999999999996" />
            </Array>
            <mxPoint x="476" y="288.03999999999996" as="targetPoint" />
            <mxPoint as="offset" />
          </mxGeometry>
        </mxCell>
        <mxCell id="7qD96wGgjuaXcZ9THzNu-10" value="&lt;font style=&quot;font-size: 8px;&quot;&gt;Retorna datos cuenta originante&lt;/font&gt;" style="html=1;verticalAlign=bottom;endArrow=open;dashed=1;endSize=8;curved=0;rounded=0;" edge="1" parent="1">
          <mxGeometry x="-0.0041" relative="1" as="geometry">
            <mxPoint x="329.5" y="324" as="sourcePoint" />
            <mxPoint x="200" y="324" as="targetPoint" />
            <mxPoint as="offset" />
          </mxGeometry>
        </mxCell>
      </root>
    </mxGraphModel>
  </diagram>
  <diagram id="OQnsemJaUkMaOWyipU1B" name="PÃ¡gina-2">
    <mxGraphModel grid="1" page="1" gridSize="10" guides="1" tooltips="1" connect="1" arrows="1" fold="1" pageScale="1" pageWidth="827" pageHeight="1169" math="0" shadow="0">
      <root>
        <mxCell id="0" />
        <mxCell id="1" parent="0" />
      </root>
    </mxGraphModel>
  </diagram>
</mxfile>
